# xmcd
#
# Track frame offsets: 
#        150
#        10816
#        23812
#        36039
#        45994
#        56901
#        67517
#        78966
#        90566
#        100992
#        112372
#        124834
#        136419
#        154944
#        168928
#        181749
#        195096
#        206789
#        217898
#        229706
#        242781
#
# Disc length: 3389 seconds
#
# Revision: 0
# Processed by: cddbd v1.5.2PL0 Copyright (c) Steve Scherf et al.
# Submitted via: ExactAudioCopy v1.3
#
DISCID=0e0d3b15
DTITLE=Jerry Reed - When You're Hot, You're Hot and Ko-Ko Joe
DYEAR=2018
DGENRE=Country
TTITLE0=When You're Hot, You're Hot
TTITLE1=Thank You Girl
TTITLE2=Don't Think Twice It's Alright
TTITLE3=She Understands Me
TTITLE4=Turned On
TTITLE5=Amos Moses
TTITLE6=I'll Be Around (In All The Old Places)
TTITLE7=Big Daddy
TTITLE8=With You (Missing You)
TTITLE9=My Kinda Love
TTITLE10=Ruby, Don't Take Your Love To Town
TTITLE11=Ko-Ko Joe
TTITLE12=Another Puff
TTITLE13=Early Morning Rain
TTITLE14=A Brand New Day
TTITLE15=Not As A Sweetheart (But Just As A Friend)
TTITLE16=You'll Never Walk Alone
TTITLE17=(Love Is) A Stranger To Me
TTITLE18=Country Boy's Dream
TTITLE19=Seasons Of My Mind
TTITLE20=Framed
EXTD=
EXTT0=
EXTT1=
EXTT2=
EXTT3=
EXTT4=
EXTT5=
EXTT6=
EXTT7=
EXTT8=
EXTT9=
EXTT10=
EXTT11=
EXTT12=
EXTT13=
EXTT14=
EXTT15=
EXTT16=
EXTT17=
EXTT18=
EXTT19=
EXTT20=
PLAYORDER=
